<svg xmlns="http://www.w3.org/2000/svg" viewBox="0 0 395.11 395.11"><defs><style>.cls-1{fill:#aadbcc;}.cls-2{fill:#6a9a8c;}</style></defs><title>Asset 1</title><g id="Layer_2" data-name="Layer 2"><g id="Layer_1-2" data-name="Layer 1"><path class="cls-1" d="M197.56,0C88.45,0,0,88.45,0,197.56S88.45,395.11,197.56,395.11s197.55-88.45,197.55-197.55S306.66,0,197.56,0Zm57.13,78.9L303.8,93.83,300,106.46,250.85,91.53ZM107.77,295.26l-15.19-20,66.34-50.46L93.17,191.49l65.27-41.37L91.53,110.54l12.77-21.6,102.17,60.44-62.6,39.68L206,220.56Zm186.52-30.81-10.72,22.69-80-37.76L276.26,139l-61.86-18.8,7.3-24,94,28.57L240.44,239Z"/><path class="cls-2" d="M302.38,115,252.31,99.77l4.13-13.58,50.06,15.22ZM253.55,99.11l48.17,14.65,3.55-11.69L257.1,87.43Z"/><path class="cls-2" d="M289.66,302.72l-.6-.28-80.67-38.09.42-.63L281,154l-61.65-18.75L227,110l95.46,29-.49.74L247.18,253.46l53.76,25.37Zm-79.33-38.91L289,301l10.15-21.5L245.24,254l.42-.63,74.76-113.58-92.51-28.12L221,134.42l62.07,18.87Z"/><path class="cls-2" d="M107.64,308.21l-16-21,66-50.22L91.84,203.58l65.33-41.41L90.62,122.8l13.45-22.73.57.33,103.1,61L145.21,201l62,31.44ZM93.5,287.44l14.39,18.92,96.86-73.66-62.21-31.55,1-.62,61.69-39.1L104.54,101.88,92.43,122.34l67.27,39.79L94.51,203.45l65.65,33.29Z"/></g></g></svg>